<svg width="22" height="22" viewBox="0 0 22 22" fill="none" xmlns="http://www.w3.org/2000/svg">
<path fill-rule="evenodd" clip-rule="evenodd" d="M10.3437 4.68513C10.3437 4.4661 10.0789 4.35638 9.92399 4.51129L7.34629 7.089C7.09001 7.34528 6.67449 7.34528 6.41821 7.089C6.16193 6.83272 6.16193 6.4172 6.41821 6.16092L8.99593 3.5832C9.97767 2.60152 11.6562 3.29677 11.6562 4.68513V11C11.6562 11.3624 11.3624 11.6562 11 11.6562C10.6375 11.6562 10.3437 11.3624 10.3437 11V4.68513ZM16.277 4.79479C16.5333 4.53851 16.9488 4.53851 17.2051 4.79479C20.632 8.22176 20.632 13.778 17.2051 17.2049C16.9488 17.4612 16.5333 17.4612 16.277 17.2049C16.0207 16.9486 16.0207 16.5331 16.277 16.2769C19.1914 13.3625 19.1914 8.63727 16.277 5.72286C16.0207 5.46658 16.0207 5.05107 16.277 4.79479ZM13.7254 7.34642C13.9817 7.09013 14.3972 7.09014 14.6534 7.34642C16.6712 9.36419 16.6712 12.6356 14.6534 14.6534C14.3972 14.9097 13.9816 14.9097 13.7254 14.6534C13.4691 14.3971 13.4691 13.9816 13.7254 13.7253C15.2306 12.2201 15.2306 9.7797 13.7254 8.27449C13.4691 8.01821 13.4691 7.6027 13.7254 7.34642ZM3.78304 8.94985C3.64728 8.94985 3.53717 9.05991 3.53717 9.19577V12.8042C3.53717 12.94 3.64729 13.0501 3.78304 13.0501H5.21361C5.38765 13.0501 5.55457 13.1192 5.67764 13.2423L9.92397 17.4886C9.92396 17.4886 9.92398 17.4886 9.92397 17.4886C10.079 17.6435 10.3437 17.5337 10.3437 17.3148V14.5C10.3437 14.1375 10.6375 13.8437 11 13.8437C11.3624 13.8437 11.6562 14.1375 11.6562 14.5V17.3148C11.6562 18.7033 9.97764 19.3983 8.99597 18.4168L4.94178 14.3626H3.78304C2.92234 14.3626 2.22467 13.6648 2.22467 12.8042V9.19577C2.22467 8.33508 2.92236 7.63735 3.78304 7.63735H4.87498C5.23742 7.63735 5.53123 7.93117 5.53123 8.2936C5.53123 8.65604 5.23742 8.94985 4.87498 8.94985H3.78304Z" fill="white"/>
<path fill-rule="evenodd" clip-rule="evenodd" d="M3.09846 3.09846C3.35474 2.84218 3.77026 2.84218 4.02654 3.09846L18.464 17.536C18.7203 17.7922 18.7203 18.2078 18.464 18.464C18.2078 18.7203 17.7922 18.7203 17.536 18.464L3.09846 4.02654C2.84218 3.77026 2.84218 3.35474 3.09846 3.09846Z" fill="white"/>
</svg>
