<svg width="20" height="20" viewBox="0 0 20 20" fill="none" xmlns="http://www.w3.org/2000/svg">
<path d="M12.4073 10.7412C13.1854 10.7412 13.9561 10.8937 14.6749 11.1914C15.3939 11.4892 16.0475 11.9263 16.5978 12.4766C17.148 13.0268 17.5842 13.6805 17.882 14.3994C18.0731 14.8609 18.2048 15.3435 18.2745 15.8359C18.339 16.2916 17.9603 16.6669 17.5001 16.667H7.31458C6.85443 16.6669 6.47566 16.2916 6.54016 15.8359C6.60988 15.3436 6.74162 14.8609 6.93274 14.3994C7.23052 13.6805 7.66672 13.0268 8.21692 12.4766C8.76719 11.9263 9.4208 11.4892 10.1398 11.1914C10.8586 10.8937 11.6293 10.7412 12.4073 10.7412ZM12.4073 11.9912C11.7934 11.9912 11.1855 12.1118 10.6183 12.3467C10.051 12.5817 9.53491 12.9262 9.10071 13.3604C8.66663 13.7945 8.32199 14.3098 8.08704 14.877C8.01404 15.0532 7.95227 15.234 7.90149 15.417H16.9132C16.8624 15.234 16.8007 15.0532 16.7277 14.877C16.4927 14.3098 16.1481 13.7945 15.714 13.3604C15.2798 12.9262 14.7637 12.5817 14.1964 12.3467C13.6292 12.1118 13.0213 11.9912 12.4073 11.9912ZM12.4073 3.33301C14.2483 3.33301 15.7404 4.82604 15.7404 6.66699C15.7402 8.50779 14.2482 10 12.4073 10C10.5665 9.99997 9.07452 8.50777 9.07434 6.66699C9.07434 4.82606 10.5664 3.33304 12.4073 3.33301ZM12.4073 4.58301C11.2568 4.58304 10.3243 5.51642 10.3243 6.66699C10.3245 7.81742 11.2569 8.74997 12.4073 8.75C13.5578 8.75 14.4902 7.81744 14.4904 6.66699C14.4904 5.5164 13.5579 4.58301 12.4073 4.58301Z" fill="white"/>
<path d="M6.11072 10.1157C6.70341 10.1157 7.29067 10.2327 7.83826 10.4595C8.1571 10.5915 8.30908 10.957 8.17712 11.2759C8.04503 11.5948 7.67864 11.7459 7.35974 11.6138C6.9639 11.4499 6.53914 11.3657 6.11072 11.3657C5.68225 11.3658 5.25755 11.4498 4.86169 11.6138C4.46578 11.7778 4.10613 12.0188 3.8031 12.3218C3.50015 12.6248 3.26008 12.9845 3.09607 13.3804C3.01255 13.582 2.9492 13.7912 2.90759 14.0044H5.31873C5.66382 14.0044 5.94358 14.2843 5.94373 14.6294C5.94373 14.9746 5.6639 15.2544 5.31873 15.2544H2.43103C1.98029 15.2544 1.57748 14.8829 1.60388 14.3882C1.63124 13.878 1.74484 13.3749 1.9408 12.9019C2.16762 12.3544 2.50028 11.857 2.91931 11.438C3.33847 11.0188 3.8365 10.6863 4.38416 10.4595C4.93159 10.2328 5.5182 10.1158 6.11072 10.1157ZM6.11072 4.50537C7.49135 4.50537 8.61059 5.62477 8.61072 7.00537C8.61072 8.38608 7.49143 9.50537 6.11072 9.50537C4.73017 9.50518 3.61072 8.38596 3.61072 7.00537C3.61085 5.62489 4.73025 4.50556 6.11072 4.50537ZM6.11072 5.75537C5.42061 5.75556 4.86085 6.31524 4.86072 7.00537C4.86072 7.69561 5.42052 8.25518 6.11072 8.25537C6.80107 8.25537 7.36072 7.69573 7.36072 7.00537C7.36059 6.31513 6.80099 5.75537 6.11072 5.75537Z" fill="white"/>
</svg>
